<?xml version="1.0" encoding="UTF-8" standalone="no"?>
<svg
   xmlns:dc="http://purl.org/dc/elements/1.1/"
   xmlns:cc="http://creativecommons.org/ns#"
   xmlns:rdf="http://www.w3.org/1999/02/22-rdf-syntax-ns#"
   xmlns:svg="http://www.w3.org/2000/svg"
   xmlns="http://www.w3.org/2000/svg"
   xmlns:xlink="http://www.w3.org/1999/xlink"
   xmlns:sodipodi="http://sodipodi.sourceforge.net/DTD/sodipodi-0.dtd"
   xmlns:inkscape="http://www.inkscape.org/namespaces/inkscape"
   inkscape:version="1.0 (4035a4fb49, 2020-05-01)"
   sodipodi:docname="edit.svg"
   id="svg4"
   version="1.1"
   fill="#5f6368"
   width="24px"
   viewBox="0 -960 960 960"
   height="24px">
  <metadata
     id="metadata10">
    <rdf:RDF>
      <cc:Work
         rdf:about="">
        <dc:format>image/svg+xml</dc:format>
        <dc:type
           rdf:resource="http://purl.org/dc/dcmitype/StillImage" />
      </cc:Work>
    </rdf:RDF>
  </metadata>
  <defs
     id="defs8">
    <linearGradient
       id="linearGradient24"
       inkscape:collect="always">
      <stop
         id="stop20"
         offset="0"
         style="stop-color:#004cd4;stop-opacity:1" />
      <stop
         id="stop22"
         offset="1"
         style="stop-color:#00f0b7;stop-opacity:1" />
    </linearGradient>
    <linearGradient
       gradientUnits="userSpaceOnUse"
       y2="-481.5047"
       x2="922.38251"
       y1="-480"
       x1="112.85266"
       id="linearGradient26"
       xlink:href="#linearGradient24"
       inkscape:collect="always" />
  </defs>
  <sodipodi:namedview
     inkscape:current-layer="svg4"
     inkscape:window-maximized="1"
     inkscape:window-y="-8"
     inkscape:window-x="-8"
     inkscape:cy="11.097179"
     inkscape:cx="4.7586207"
     inkscape:zoom="26.583333"
     showgrid="false"
     id="namedview6"
     inkscape:window-height="829"
     inkscape:window-width="1600"
     inkscape:pageshadow="2"
     inkscape:pageopacity="0"
     guidetolerance="10"
     gridtolerance="10"
     objecttolerance="10"
     borderopacity="1"
     bordercolor="#666666"
     pagecolor="#ffffff" />
  <path
     style="fill:url(#linearGradient26);fill-opacity:1"
     id="path2"
     d="M200-120q-33 0-56.5-23.5T120-200v-560q0-33 23.5-56.5T200-840h357l-80 80H200v560h560v-278l80-80v358q0 33-23.5 56.5T760-120H200Zm280-360ZM360-360v-170l367-367q12-12 27-18t30-6q16 0 30.5 6t26.5 18l56 57q11 12 17 26.5t6 29.5q0 15-5.5 29.5T897-728L530-360H360Zm481-424-56-56 56 56ZM440-440h56l232-232-28-28-29-28-231 231v57Zm260-260-29-28 29 28 28 28-28-28Z" />
</svg>
